<svg width="81" height="93" viewBox="0 0 81 93" fill="none" xmlns="http://www.w3.org/2000/svg">
<g clip-path="url(#clip0_647_104310)">
<path d="M15.6334 42.0957C15.1243 41.8048 14.9061 41.6594 14.6152 41.5866C9.23338 39.4775 6.76065 35.0412 5.59702 29.8048C4.50611 24.9321 8.50611 19.2594 13.597 18.0957C15.6334 17.5866 17.597 17.7321 19.6334 18.3139C23.9243 19.623 27.2697 22.1685 29.8879 25.8048C30.397 26.5321 30.9788 27.3321 31.5607 28.1321C32.1425 27.4775 31.9243 26.823 31.9243 26.2412C32.1425 22.023 32.3607 17.7321 33.3061 13.5866C33.9607 10.6775 34.8334 7.8412 36.5788 5.36848C38.3243 2.96848 40.5061 1.29575 43.4879 0.786658C45.7425 0.423021 47.6334 1.00484 49.2334 2.53211C50.9788 4.13211 52.0697 6.16848 52.797 8.423C54.5425 13.8775 54.5425 19.2594 52.8697 24.7139C52.7243 25.2957 52.5788 25.9503 52.6516 26.6775C53.1607 26.3139 53.597 25.8775 54.1061 25.5139C56.3607 23.8412 58.5425 22.0957 60.8697 20.5685C63.4152 18.823 66.3243 18.0957 69.4516 18.3139C76.2876 18.6775 82.324 26.5321 79.124 33.6594C77.0876 38.3139 73.6695 41.5139 69.2334 43.7685C68.2879 44.2775 67.3425 44.7139 66.397 45.1503C66.3243 45.1503 66.3243 45.223 66.2516 45.4412C66.9061 45.5866 67.5607 45.8048 68.2152 45.9503C71.197 46.6048 73.9604 47.7685 76.4331 49.5866C77.7422 50.6048 78.8331 51.7685 79.4876 53.2957C80.9422 56.7866 80.1422 60.0594 77.0876 62.3139C74.0331 64.5685 70.6152 65.9503 66.8334 66.4594C64.8697 66.7503 62.9061 66.9685 60.9425 67.1866C57.597 67.4775 54.4697 66.7503 51.197 65.4412C51.1243 66.0957 51.0516 66.6048 50.9788 67.1139C50.6152 73.223 49.2334 79.1865 47.1243 84.9319C46.9061 85.5865 46.6152 86.241 46.3243 86.8956C45.0879 89.5865 43.0516 91.1865 40.2152 91.9138C37.2334 92.7138 34.7607 91.9138 32.8697 89.5865C31.2697 87.6956 30.1788 85.5138 29.6697 83.1138C28.5061 76.8592 28.5788 70.6048 29.8152 64.423C29.9607 63.6957 30.0334 62.9685 30.1788 62.023C29.6697 62.2412 29.3061 62.3139 28.9425 62.5321C24.9425 64.5685 20.9425 66.6048 16.9425 68.5685C15.5607 69.223 14.2516 69.9503 12.8697 70.5321C11.5607 71.0412 10.3243 71.623 8.94247 71.9139C4.28793 72.9321 0.651566 70.023 0.506111 65.0048C0.433384 62.6048 1.0152 60.3503 1.96065 58.2412C4.65156 51.8412 8.65156 46.6048 14.5425 42.823C14.8334 42.6048 15.1243 42.4594 15.6334 42.0957Z" fill="#F8BF28"/>
<path d="M52.8696 47.3759C52.7125 51.2981 50.9212 55.0939 47.3701 57.9091C45.0131 59.7753 42.2162 60.5344 39.2307 60.313C37.4081 60.1865 35.711 59.4906 34.2026 58.4468C30.4315 55.8847 28.2631 52.342 27.6032 47.8504C27.3203 46.0157 27.3518 44.2128 27.7289 42.4098C28.2631 39.816 29.4888 37.6335 31.5 35.9254C33.6055 34.1224 36.0568 33.047 38.7908 32.7624C40.6135 32.5725 42.3419 32.9521 44.0075 33.7112C45.7987 34.5336 47.4329 35.6091 48.8471 37.0009C51.5497 39.6579 52.8067 42.9475 52.8696 47.3759Z" fill="#FF7639"/>
</g>
<defs>
<clipPath id="clip0_647_104310">
<rect width="80" height="91.6364" fill="white" transform="translate(0.5 0.681763)"/>
</clipPath>
</defs>
</svg>
