<svg width="100" height="95" viewBox="0 0 100 95" fill="none" xmlns="http://www.w3.org/2000/svg">
<g clip-path="url(#clip0_650_104331)">
<path d="M48.149 30.2557C53.1826 30.3899 57.4107 31.5308 61.0349 34.2154C66.404 38.108 69.0884 43.41 68.7528 50.1214C68.6186 52.6718 67.5448 54.8865 65.8671 56.7657C62.9812 60.0543 59.2228 61.6651 54.8604 62.202C54.4577 62.2691 54.1222 62.2691 53.7195 62.202C49.3571 61.4637 45.0618 60.6584 41.1691 58.4436C36.1356 55.4235 33.5181 50.9268 33.5852 45.0208C33.7195 38.2423 39.0215 31.8664 45.4644 30.5241C46.5383 30.3228 47.6121 30.3228 48.149 30.2557ZM48.6188 37.5711C47.6792 37.7725 46.6725 37.8396 45.8 38.1751C41.706 39.853 39.8269 45.2892 42.0416 49.1147C42.7799 50.457 43.9208 51.4637 45.2631 52.1349C47.8134 53.41 50.5651 54.2154 53.3839 54.4839C54.7262 54.6181 56.2027 54.3496 57.4779 53.8127C60.5651 52.6047 61.8403 50.2557 61.1691 47.1684C60.5651 44.3496 59.1557 41.9335 56.7396 40.2557C54.3906 38.6449 51.6389 37.8396 48.6188 37.5711Z" fill="#F8BF28"/>
<path d="M54.9985 14.1483C57.7502 14.4168 60.569 14.4839 63.3207 14.8866C69.6968 15.8933 74.8645 19.1819 78.7572 24.2825C83.8578 30.8597 86.6095 38.3765 86.878 46.7658C87.0122 49.9872 86.3411 53.0745 85.0659 56.0275C83.8578 58.7792 82.3813 61.3966 80.435 63.7456C73.925 71.5309 66.0052 77.0342 55.7368 78.4436C48.824 79.3832 41.9784 78.9805 35.4683 76.5644C30.9717 74.8195 26.8777 72.3362 23.2535 69.1819C22.0455 68.108 21.0388 66.6986 20.1663 65.2893C17.8173 61.3295 16.4079 56.9671 15.1327 52.6047C14.73 51.2624 14.7972 49.7188 14.7972 48.3094C14.7972 39.3161 18.0186 31.6651 24.73 25.5577C32.3811 18.645 41.3072 14.6852 51.777 14.3497C52.8509 14.3497 53.9247 14.3497 54.9985 14.3497C54.9985 14.2825 54.9985 14.2154 54.9985 14.1483ZM54.8643 21.6651C46.0723 21.3966 38.2871 24.1483 31.4415 29.5846C28.6227 31.8664 26.2066 34.4839 24.5958 37.8396C20.9045 45.5577 21.6428 53.0074 25.9381 60.2557C26.6092 61.3966 27.616 62.3362 28.6898 63.1416C30.4347 64.4839 32.2468 65.6919 34.126 66.8329C39.1596 69.9201 44.5287 71.6651 50.569 71.3966C62.2468 70.8597 70.7706 65.2893 76.878 55.6919C77.6162 54.551 78.1531 53.3429 78.5558 52.0678C79.0256 50.6584 79.3612 49.1148 79.4283 47.7054C79.4283 40.3899 77.0122 33.8799 72.4484 28.3094C69.4954 24.7523 65.6696 22.6047 60.9717 22.1349C58.9582 21.8664 56.8777 21.7993 54.8643 21.6651Z" fill="#FF8DC1"/>
<path d="M44.9942 94.0812C39.4238 94.0812 34.7929 93.3429 30.3634 91.5309C27.4774 90.3228 24.86 88.645 22.5781 86.4302C19.4909 83.4101 16.2694 80.3899 13.115 77.4369C12.8466 77.1685 12.511 76.9671 12.2425 76.6987C11.1687 75.6919 9.89356 74.7523 9.02107 73.5443C4.5244 67.4369 1.10158 60.7926 0.229103 53.0745C-0.509152 46.5644 0.564673 40.3228 3.04789 34.3497C4.9942 29.5846 7.47745 25.155 10.766 21.2624C14.1217 17.3027 17.9472 14.0812 22.511 11.598C27.9472 8.77919 33.4506 6.09464 39.2224 3.94699C47.4774 0.926859 56.0681 -0.281198 64.86 0.0543725C68.0812 0.188601 71.1685 0.926859 73.9872 2.47048C77.3429 4.28256 80.6987 6.16176 83.7859 8.3094C90.296 12.7389 94.2557 19.1819 96.806 26.4302C100.43 36.7658 100.833 47.3698 97.947 57.9738C97.3429 60.1886 96.5376 62.4034 95.5309 64.4168C90.8329 73.6785 84.1886 81.1282 74.7926 85.9604C65.1285 90.9268 54.9942 93.6114 44.9942 94.0812ZM44.86 86.6315C54.0546 86.0946 63.2493 83.6114 71.9067 79.1148C78.9537 75.4235 83.9872 69.7859 87.8799 63.0074C89.0208 60.994 90.0275 58.7792 90.6315 56.4973C93.249 46.9671 92.9134 37.4369 89.4235 28.1752C87.3429 22.6718 84.3228 17.7725 79.2893 14.3497C76.6047 12.5376 73.7188 10.9268 70.8329 9.31611C68.6181 8.10805 66.2023 7.57114 63.7191 7.50403C56.0009 7.3698 48.417 8.44362 41.1687 11.1953C36.0681 13.1416 31.1016 15.5577 26.2694 18.1081C22.511 20.1215 19.3566 22.7389 16.605 25.9604C13.8533 29.1819 11.8399 32.806 10.162 36.6987C7.61168 42.6047 6.73919 48.645 8.08148 54.9537C8.6855 57.7725 9.49087 60.3899 11.7728 62.4705C12.8466 63.4772 13.6519 64.8195 14.4573 66.0275C15.1956 67.1013 15.8667 68.1752 16.4707 69.3161C17.4774 71.0611 18.7526 72.5376 20.2291 73.8799C22.5781 76.0275 24.9942 78.2423 27.209 80.5242C29.558 82.8732 32.3097 84.4168 35.3969 85.3564C38.3499 86.296 41.303 86.6315 44.86 86.6315Z" fill="#FF7639"/>
</g>
<defs>
<clipPath id="clip0_650_104331">
<rect width="100" height="94.6309" fill="white"/>
</clipPath>
</defs>
</svg>
